<svg version="1.1" viewBox="0.0 0.0 214.0 217.0" fill="none" stroke="none" stroke-linecap="square" stroke-miterlimit="10" xmlns:xlink="http://www.w3.org/1999/xlink" xmlns="http://www.w3.org/2000/svg"><clipPath id="p.0"><path d="m0 0l214.0 0l0 217.0l-214.0 0l0 -217.0z" clip-rule="nonzero"/></clipPath><g clip-path="url(#p.0)"><path fill="#000000" fill-opacity="0.0" d="m0 0l214.0 0l0 217.0l-214.0 0z" fill-rule="evenodd"/><path fill="#000000" fill-opacity="0.0" d="m0 58.10499l583.40155 0l0 80.125984l-583.40155 0z" fill-rule="evenodd"/><path fill="#373637" d="m9.765625 114.59737l0 1.828125q0 10.296875 2.53125 19.0625q2.53125 8.765625 7.328125 15.140625q4.71875 6.359375 11.5625 9.984375q6.84375 3.625 15.484375 3.625q7.9375 0 13.953125 -3.046875q6.015625 -3.0625 10.46875 -8.5625l1.21875 9.859375l21.90625 0l0 -134.0l-24.34375 0l0 48.078125q-4.359375 -4.890625 -9.984375 -7.546875q-5.625 -2.65625 -13.046875 -2.65625q-8.8125 0 -15.65625 3.484375q-6.84375 3.484375 -11.640625 9.859375q-4.796875 6.359375 -7.296875 15.265625q-2.484375 8.890625 -2.484375 19.625zm24.25 1.828125l0 -1.828125q0 -5.9375 1.046875 -11.125q1.046875 -5.1875 3.328125 -9.109375q2.265625 -3.84375 5.875 -6.0625q3.625 -2.234375 8.765625 -2.234375q6.203125 0 10.296875 2.671875q4.109375 2.65625 6.546875 7.453125l0 38.203125q-2.4375 4.71875 -6.59375 7.421875q-4.140625 2.703125 -10.421875 2.703125q-5.140625 0 -8.71875 -2.171875q-3.578125 -2.1875 -5.84375 -6.03125q-2.265625 -3.75 -3.28125 -8.84375q-1.0 -5.109375 -1.0 -11.046875zm108.9612 46.0625l24.34375 0l0 -76.5l34.015625 0l0 -17.890625l-34.015625 0l0 -5.140625q0 -4.1875 1.078125 -7.5q1.09375 -3.328125 3.359375 -5.59375q2.53125 -2.703125 6.796875 -4.09375q4.28125 -1.390625 10.390625 -1.390625q5.671875 0 9.859375 0.53125q4.1875 0.515625 7.5 1.203125l1.578125 -19.015627q-2.96875 -0.515625 -5.71875 -0.953125q-2.75 -0.4375 -5.453125 -0.78125q-2.703125 -0.359375 -5.546875 -0.578125q-2.828125 -0.21875 -5.875 -0.21875q-9.6875 0 -17.546875 2.484375q-7.84375 2.484375 -13.34375 7.375002q-5.484375 4.890625 -8.453125 12.046875q-2.96875 7.140625 -2.96875 16.484375l0 5.140625l-24.78125 0l0 17.890625l24.78125 0l0 76.5z" fill-rule="nonzero"/><path fill="#010000" fill-opacity="0.0" d="m214.4224 -24.717241l0 0l0 235.62038l0 0l0 -235.62038z" fill-rule="nonzero"/></g></svg>