<svg version="1.1" viewBox="0.0 0.0 428.0 217.0" fill="none" stroke="none" stroke-linecap="square" stroke-miterlimit="10" xmlns:xlink="http://www.w3.org/1999/xlink" xmlns="http://www.w3.org/2000/svg"><clipPath id="p.0"><path d="m0 0l428.0 0l0 217.0l-428.0 0l0 -217.0z" clip-rule="nonzero"/></clipPath><g clip-path="url(#p.0)"><path fill="#000000" fill-opacity="0.0" d="m0 0l428.0 0l0 217.0l-428.0 0z" fill-rule="evenodd"/><path fill="#000000" fill-opacity="0.0" d="m0 58.10499l665.54333 0l0 80.125984l-665.54333 0z" fill-rule="evenodd"/><path fill="#373637" d="m10.90625 162.48799l34.109375 0q8.453125 0 15.90625 -2.09375q7.46875 -2.09375 13.65625 -6.015625q5.328125 -3.3125 9.78125 -8.234375q4.453125 -4.9375 7.765625 -10.78125q3.484375 -6.546875 5.40625 -14.390625q1.921875 -7.859375 1.921875 -16.671875l0 -10.46875q0 -9.15625 -2.0625 -17.265625q-2.046875 -8.109375 -5.796875 -14.828125q-3.21875 -5.5 -7.546875 -10.15625q-4.3125 -4.671875 -9.8125 -7.90625q-6.28125 -3.921875 -13.953125 -6.0625q-7.671875 -2.140625 -16.484375 -2.140625l-32.890625 0l0 127.015625zm24.6875 -107.125l8.203125 0q4.4375 0 8.234375 1.0q3.796875 1.0 6.9375 2.84375q4.109375 2.4375 7.203125 6.28125q3.09375 3.828125 5.015625 8.71875q1.5625 4.09375 2.390625 9.03125q0.828125 4.921875 0.828125 10.421875l0 10.640625q0 5.84375 -0.828125 10.859375q-0.828125 5.015625 -2.390625 9.125q-1.921875 4.703125 -4.59375 8.234375q-2.65625 3.53125 -5.96875 5.8125q-3.21875 2.171875 -7.15625 3.3125q-3.921875 1.125 -8.453125 1.125l-9.421875 0l0 -87.40625zm151.69557 11.0q-9.5 0 -17.53125 4.578125q-8.03125 4.578125 -13.78125 12.59375l-0.171875 -2.09375l-0.96875 -13.34375l-22.59375 0l0 94.390625l24.25 0l0 -56.703125q1.65625 -4.015625 4.1875 -6.96875q2.53125 -2.96875 6.109375 -4.890625q2.96875 -1.65625 6.765625 -2.484375q3.796875 -0.828125 8.5 -0.828125q4.546875 0 9.5625 0.5625q5.015625 0.5625 9.8125 1.703125l3.578125 -24.171875q-2.890625 -0.875 -7.5625 -1.609375q-4.65625 -0.734375 -10.15625 -0.734375zm85.22682 97.875q13.703125 0 23.734375 -5.3125q10.03125 -5.328125 14.65625 -11.875l-12.125 -13.09375q-4.1875 5.421875 -10.90625 8.125q-6.71875 2.703125 -13.875 2.703125q-5.0625 0 -9.34375 -1.5625q-4.265625 -1.578125 -7.578125 -4.46875q-3.21875 -2.78125 -5.140625 -6.21875q-1.921875 -3.453125 -3.140625 -9.125l0 -0.265625l64.03125 0l0 -10.296875q0 -10.375 -2.890625 -18.96875q-2.875 -8.59375 -8.375 -14.703125q-5.578125 -6.109375 -13.5625 -9.453125q-7.984375 -3.359375 -18.1875 -3.359375q-9.859375 0 -18.234375 3.578125q-8.375 3.5625 -14.46875 10.015625q-6.109375 6.46875 -9.515625 15.40625q-3.40625 8.9375 -3.40625 19.75l0 3.5q0 9.5 3.4375 17.84375q3.453125 8.328125 9.828125 14.421875q6.359375 6.203125 15.25 9.78125q8.90625 3.578125 19.8125 3.578125zm-2.875 -78.25q4.625 0 8.15625 1.4375q3.53125 1.4375 5.96875 3.875q2.453125 2.53125 3.84375 5.9375q1.390625 3.40625 1.390625 7.234375l0 1.921875l-39.765625 0q0.859375 -4.625 2.609375 -8.375q1.75 -3.75 4.359375 -6.453125q2.53125 -2.703125 5.9375 -4.140625q3.40625 -1.4375 7.5 -1.4375zm71.27371 76.5l21.28125 0l10.03125 -50.421875l1.921875 -9.59375l2.0 9.59375l10.390625 50.421875l21.28125 0l16.921875 -94.390625l-22.25 0l-6.96875 55.65625l-1.21875 9.15625l-1.65625 -8.984375l-10.21875 -55.828125l-16.21875 0l-10.203125 56.09375l-1.65625 8.984375l-1.140625 -8.984375l-7.0625 -56.09375l-22.15625 0l16.921875 94.390625z" fill-rule="nonzero"/><path fill="#010000" fill-opacity="0.0" d="m428.8448 -24.717241l0 0l0 235.62038l0 0l0 -235.62038z" fill-rule="nonzero"/></g></svg>