<svg version="1.1" viewBox="0.0 0.0 107.0 217.0" fill="none" stroke="none" stroke-linecap="square" stroke-miterlimit="10" xmlns:xlink="http://www.w3.org/1999/xlink" xmlns="http://www.w3.org/2000/svg"><clipPath id="p.0"><path d="m0 0l107.0 0l0 217.0l-107.0 0l0 -217.0z" clip-rule="nonzero"/></clipPath><g clip-path="url(#p.0)"><path fill="#000000" fill-opacity="0.0" d="m0 0l107.0 0l0 217.0l-107.0 0z" fill-rule="evenodd"/><path fill="#000000" fill-opacity="0.0" d="m0 58.10499l291.71652 0l0 80.125984l-291.71652 0z" fill-rule="evenodd"/><path fill="#f9f9fa" d="m0 -9.032014l107.2112 0l0 214.4l-107.2112 0l0 -214.4z" fill-rule="nonzero"/><path fill="#000000" fill-opacity="0.0" d="m0 -24.717241l107.2112 0l0 235.62038l-107.2112 0l0 -235.62038z" fill-rule="nonzero"/><path fill="#000000" d="m67.6875 41.48799l0 -15.078127l-19.453125 0l0 15.078127q0 8.46875 -2.140625 15.015625q-2.125 6.53125 -5.4375 12.203125l11.078125 6.890625q3.390625 -3.046875 6.265625 -7.09375q2.890625 -4.0625 5.078125 -8.609375q2.171875 -4.4375 3.390625 -9.1875q1.21875 -4.765625 1.21875 -9.21875z" fill-rule="nonzero"/><path fill="#010000" fill-opacity="0.0" d="m107.2112 -24.717241l0 0l0 235.62038l0 0l0 -235.62038z" fill-rule="nonzero"/></g></svg>