<svg version="1.1" viewBox="0.0 0.0 642.0 217.0" fill="none" stroke="none" stroke-linecap="square" stroke-miterlimit="10" xmlns:xlink="http://www.w3.org/1999/xlink" xmlns="http://www.w3.org/2000/svg"><clipPath id="p.0"><path d="m0 0l642.0 0l0 217.0l-642.0 0l0 -217.0z" clip-rule="nonzero"/></clipPath><g clip-path="url(#p.0)"><path fill="#000000" fill-opacity="0.0" d="m0 0l642.0 0l0 217.0l-642.0 0z" fill-rule="evenodd"/><path fill="#000000" fill-opacity="0.0" d="m0 58.10499l998.3307 0l0 80.125984l-998.3307 0z" fill-rule="evenodd"/><path fill="#373637" d="m92.03125 109.87862l0 -19.875l-54.4375 0l0 -34.546875l61.25 0l0 -19.984375l-85.84375 0l0 127.015625l24.59375 0l0 -52.609375l54.4375 0zm89.07057 52.609375l21.984375 0l0 -94.390625l-24.34375 0l0 66.21875q-1.140625 2.265625 -2.71875 4.09375q-1.5625 1.828125 -3.5625 3.140625q-2.359375 1.484375 -5.453125 2.265625q-3.09375 0.78125 -6.9375 0.78125q-4.265625 0 -7.234375 -1.046875q-2.96875 -1.046875 -4.796875 -3.484375q-1.828125 -2.359375 -2.65625 -6.28125q-0.828125 -3.921875 -0.828125 -9.6875l0 -56.0l-24.265625 0l0 55.828125q0 10.734375 2.40625 18.375q2.40625 7.625 6.765625 12.515625q4.359375 4.96875 10.453125 7.234375q6.109375 2.265625 13.4375 2.265625q8.03125 0 14.78125 -4.0q6.765625 -4.015625 11.5625 -11.09375l1.40625 13.265625zm106.50807 -25.90625q0 2.171875 -1.09375 4.015625q-1.078125 1.828125 -3.265625 3.21875q-2.265625 1.40625 -5.796875 2.234375q-3.53125 0.828125 -8.25 0.828125q-3.921875 0 -7.640625 -0.78125q-3.703125 -0.796875 -6.578125 -2.546875q-2.875 -1.65625 -4.71875 -4.390625q-1.828125 -2.75 -2.078125 -6.59375l-23.125 0q0 5.765625 2.828125 11.484375q2.84375 5.703125 8.34375 10.15625q5.484375 4.53125 13.640625 7.328125q8.171875 2.78125 18.8125 2.78125q9.671875 0 17.515625 -2.125q7.859375 -2.140625 13.453125 -5.984375q5.484375 -3.84375 8.5 -9.109375q3.015625 -5.28125 3.015625 -11.5625q0 -6.8125 -3.015625 -11.734375q-3.015625 -4.9375 -8.328125 -8.421875q-5.328125 -3.40625 -12.65625 -5.578125q-7.328125 -2.1875 -15.875 -3.578125q-5.9375 -0.875 -9.78125 -2.046875q-3.828125 -1.1875 -6.0 -2.671875q-2.28125 -1.390625 -3.15625 -3.171875q-0.859375 -1.796875 -0.859375 -3.890625q0 -2.09375 1.0 -3.96875q1.0 -1.875 2.921875 -3.265625q2.09375 -1.578125 5.40625 -2.4375q3.3125 -0.875 7.765625 -0.875q5.234375 0 8.9375 1.3125q3.71875 1.296875 5.890625 3.484375q1.578125 1.65625 2.359375 3.703125q0.78125 2.046875 0.78125 4.40625l24.25 0q0 -6.546875 -2.875 -12.125q-2.875 -5.578125 -8.28125 -9.6875q-5.5 -4.015625 -13.359375 -6.3125q-7.84375 -2.3125 -17.703125 -2.3125q-9.421875 0 -16.921875 2.359375q-7.5 2.34375 -12.734375 6.359375q-5.234375 4.015625 -8.03125 9.34375q-2.78125 5.3125 -2.78125 11.15625q0 6.015625 2.734375 10.640625q2.75 4.625 7.640625 8.109375q4.890625 3.578125 11.734375 6.0625q6.84375 2.484375 15.125 4.140625q6.546875 1.234375 10.8125 2.453125q4.28125 1.21875 6.90625 2.609375q2.53125 1.484375 3.53125 3.140625q1.0 1.65625 1.0 3.84375zm90.82059 -91.59375l-24.265625 0l0 23.109375l-21.546875 0l0 17.890625l21.546875 0l0 42.921875q0 9.328125 2.4375 16.0q2.453125 6.671875 6.984375 10.953125q4.453125 4.359375 10.78125 6.40625q6.328125 2.046875 14.09375 2.046875q4.0 0 8.140625 -0.390625q4.15625 -0.390625 7.984375 -1.09375q3.84375 -0.6875 7.25 -1.78125q3.40625 -1.09375 5.921875 -2.578125l-2.34375 -16.65625q-1.65625 0.4375 -3.96875 0.875q-2.3125 0.4375 -4.9375 0.78125q-2.703125 0.4375 -5.625 0.703125q-2.921875 0.25 -5.71875 0.25q-3.828125 0 -6.9375 -0.859375q-3.09375 -0.875 -5.265625 -2.96875q-2.1875 -2.015625 -3.359375 -5.453125q-1.171875 -3.453125 -1.171875 -8.59375l0 -40.5625l35.234375 0l0 -17.890625l-35.234375 0l0 -23.109375zm69.16431 23.109375l0 19.8125l26.875 0l0 54.859375l-26.875 0l0 19.71875l76.953125 0l0 -19.71875l-25.5625 0l0 -74.671875l-51.390625 0zm25.125 -24.15625q0 2.78125 1.0 5.1875q1.015625 2.390625 2.84375 4.046875q1.828125 1.75 4.40625 2.71875q2.578125 0.953125 5.71875 0.953125q6.453125 0 10.234375 -3.609375q3.796875 -3.625 3.796875 -9.296875q0 -5.671875 -3.796875 -9.296875q-3.78125 -3.625002 -10.234375 -3.625002q-3.140625 0 -5.71875 0.96875q-2.578125 0.9531269 -4.40625 2.609377q-1.828125 1.75 -2.84375 4.15625q-1.0 2.390625 -1.0 5.1875zm75.63306 118.546875l24.34375 0l0 -67.078125q1.21875 -1.921875 2.703125 -3.484375q1.484375 -1.578125 3.3125 -2.71875q2.265625 -1.5625 5.1875 -2.34375q2.921875 -0.796875 6.421875 -0.796875q4.1875 0 7.5 0.828125q3.3125 0.828125 5.671875 2.921875q2.34375 2.09375 3.609375 5.71875q1.265625 3.625 1.265625 9.203125l0 57.75l24.25 0l0 -58.09375q0 -10.296875 -2.40625 -17.484375q-2.390625 -7.203125 -6.65625 -11.828125q-4.359375 -4.53125 -10.296875 -6.625q-5.9375 -2.09375 -13.078125 -2.09375q-5.59375 0 -10.5625 1.578125q-4.96875 1.5625 -9.15625 4.515625q-2.453125 1.75 -4.640625 3.9375q-2.171875 2.171875 -4.0 4.796875l-1.484375 -13.09375l-21.984375 0l0 94.390625z" fill-rule="nonzero"/><path fill="#010000" fill-opacity="0.0" d="m643.26715 -24.717241l0 0l0 235.62038l0 0l0 -235.62038z" fill-rule="nonzero"/></g></svg>