<svg version="1.1" viewBox="0.0 0.0 107.0 217.0" fill="none" stroke="none" stroke-linecap="square" stroke-miterlimit="10" xmlns:xlink="http://www.w3.org/1999/xlink" xmlns="http://www.w3.org/2000/svg"><clipPath id="p.0"><path d="m0 0l107.0 0l0 217.0l-107.0 0l0 -217.0z" clip-rule="nonzero"/></clipPath><g clip-path="url(#p.0)"><path fill="#000000" fill-opacity="0.0" d="m0 0l107.0 0l0 217.0l-107.0 0z" fill-rule="evenodd"/><path fill="#000000" fill-opacity="0.0" d="m0 58.10499l291.71652 0l0 80.125984l-291.71652 0z" fill-rule="evenodd"/><path fill="#f9f9fa" d="m0 -9.032014l107.2112 0l0 214.4l-107.2112 0l0 -214.4z" fill-rule="nonzero"/><path fill="#000000" fill-opacity="0.0" d="m0 -24.717241l107.2112 0l0 235.62038l-107.2112 0l0 -235.62038z" fill-rule="nonzero"/><path fill="#000000" d="m42.828125 58.847366l0 15.359375l19.453125 0l0 -15.4375q0 -8.46875 2.171875 -14.96875q2.1875 -6.5 5.515625 -12.171877l-11.171875 -6.890625q-3.40625 3.0625 -6.28125 7.078125q-2.875 4.000002 -5.0625 8.546877q-2.171875 4.53125 -3.40625 9.296875q-1.21875 4.75 -1.21875 9.1875z" fill-rule="nonzero"/><path fill="#010000" fill-opacity="0.0" d="m107.2112 -24.717241l0 0l0 235.62038l0 0l0 -235.62038z" fill-rule="nonzero"/></g></svg>