<svg version="1.1" viewBox="0.0 0.0 107.0 217.0" fill="none" stroke="none" stroke-linecap="square" stroke-miterlimit="10" xmlns:xlink="http://www.w3.org/1999/xlink" xmlns="http://www.w3.org/2000/svg"><clipPath id="p.0"><path d="m0 0l107.0 0l0 217.0l-107.0 0l0 -217.0z" clip-rule="nonzero"/></clipPath><g clip-path="url(#p.0)"><path fill="#000000" fill-opacity="0.0" d="m0 0l107.0 0l0 217.0l-107.0 0z" fill-rule="evenodd"/><path fill="#000000" fill-opacity="0.0" d="m0 58.10499l291.71652 0l0 80.125984l-291.71652 0z" fill-rule="evenodd"/><path fill="#f9f9fa" d="m0 -9.032014l107.2112 0l0 214.4l-107.2112 0l0 -214.4z" fill-rule="nonzero"/><path fill="#000000" fill-opacity="0.0" d="m0 -24.717241l107.2112 0l0 235.62038l-107.2112 0l0 -235.62038z" fill-rule="nonzero"/><path fill="#000000" d="m43.09375 101.33174q0 5.5 3.703125 9.25q3.71875 3.75 10.078125 3.75q6.203125 0 9.984375 -3.65625q3.796875 -3.671875 3.796875 -9.34375q0 -5.671875 -3.796875 -9.375q-3.78125 -3.703125 -9.984375 -3.703125q-6.359375 0 -10.078125 3.796875q-3.703125 3.796875 -3.703125 9.28125z" fill-rule="nonzero"/><path fill="#010000" fill-opacity="0.0" d="m107.2112 -24.717241l0 0l0 235.62038l0 0l0 -235.62038z" fill-rule="nonzero"/></g></svg>