<svg version="1.1" viewBox="0.0 0.0 214.0 217.0" fill="none" stroke="none" stroke-linecap="square" stroke-miterlimit="10" xmlns:xlink="http://www.w3.org/1999/xlink" xmlns="http://www.w3.org/2000/svg"><clipPath id="p.0"><path d="m0 0l214.0 0l0 217.0l-214.0 0l0 -217.0z" clip-rule="nonzero"/></clipPath><g clip-path="url(#p.0)"><path fill="#000000" fill-opacity="0.0" d="m0 0l214.0 0l0 217.0l-214.0 0z" fill-rule="evenodd"/><path fill="#000000" fill-opacity="0.0" d="m0 58.10499l583.40155 0l0 80.125984l-583.40155 0z" fill-rule="evenodd"/><path fill="#373637" d="m38.03125 148.44112q0 6.71875 4.53125 11.265625q4.546875 4.53125 12.3125 4.53125q7.671875 0 12.25 -4.484375q4.578125 -4.5 4.578125 -11.3125q0 -6.796875 -4.5 -11.421875q-4.484375 -4.625 -12.328125 -4.625q-7.953125 0 -12.40625 4.671875q-4.4375 4.65625 -4.4375 11.375zm0 -72.0625q0 6.71875 4.53125 11.265625q4.546875 4.53125 12.3125 4.53125q7.671875 0 12.25 -4.484375q4.578125 -4.5 4.578125 -11.3125q0 -6.796875 -4.5 -11.421875q-4.484375 -4.625 -12.328125 -4.625q-7.953125 0 -12.40625 4.671875q-4.4375 4.65625 -4.4375 11.375zm165.49245 23.5625l0 -19.890625l-82.53125 0l0 19.890625l82.53125 0zm0 37.59375l0 -19.796875l-82.53125 0l0 19.796875l82.53125 0z" fill-rule="nonzero"/><path fill="#010000" fill-opacity="0.0" d="m214.4224 -24.717241l0 0l0 235.62038l0 0l0 -235.62038z" fill-rule="nonzero"/></g></svg>