<svg
  id="walrus"
  class="operator"
  xmlns="http://www.w3.org/2000/svg"
  viewBox="0 0 214 217"
  preserveAspectRatio="xMidYMid meet"
\>
  <path
    d="m38.03125 148.44112q0 6.71875 4.53125 11.265625q4.546875 4.53125 12.3125 4.53125q7.671875 0 12.25 -4.484375q4.578125 -4.5 4.578125 -11.3125q0 -6.796875 -4.5 -11.421875q-4.484375 -4.625 -12.328125 -4.625q-7.953125 0 -12.40625 4.671875q-4.4375 4.65625 -4.4375 11.375zm0 -72.0625q0 6.71875 4.53125 11.265625q4.546875 4.53125 12.3125 4.53125q7.671875 0 12.25 -4.484375q4.578125 -4.5 4.578125 -11.3125q0 -6.796875 -4.5 -11.421875q-4.484375 -4.625 -12.328125 -4.625q-7.953125 0 -12.40625 4.671875q-4.4375 4.65625 -4.4375 11.375zm165.49245 23.5625l0 -19.890625l-82.53125 0l0 19.890625l82.53125 0zm0 37.59375l0 -19.796875l-82.53125 0l0 19.796875l82.53125 0z"
  />
</svg>